<?xml version="1.0" standalone="no"?>
<svg xmlns="http://www.w3.org/2000/svg" version="1.1" width="697" height="697">
	<!-- Created with https://api.qrserver.com (QR Code API, see goQR.me/api for information) -->
	<title>QR Code</title>
	<desc>00020126660014BR.GOV.BCB.PIX0122thiagopterra@gmail.com0218Bolão da Copa 2026520400005303986540580.005802BR5918THIAGO PEREZ TERRA6013CAXIAS DO SUL62120508Copa202663046B2A</desc>
	<rect style="fill:rgb(255, 255, 255);fill-opacity:1" x="0" y="0" width="697" height="697" />
	<g id="elements">
		<path style="fill:rgb(0, 0, 0)" d="M 0,0 l 17,0 0,17 -17,0 z M 17,0 l 17,0 0,17 -17,0 z M 34,0 l 17,0 0,17 -17,0 z M 51,0 l 17,0 0,17 -17,0 z M 68,0 l 17,0 0,17 -17,0 z M 85,0 l 17,0 0,17 -17,0 z M 102,0 l 17,0 0,17 -17,0 z M 153,0 l 17,0 0,17 -17,0 z M 170,0 l 17,0 0,17 -17,0 z M 187,0 l 17,0 0,17 -17,0 z M 221,0 l 17,0 0,17 -17,0 z M 238,0 l 17,0 0,17 -17,0 z M 255,0 l 17,0 0,17 -17,0 z M 357,0 l 17,0 0,17 -17,0 z M 425,0 l 17,0 0,17 -17,0 z M 459,0 l 17,0 0,17 -17,0 z M 510,0 l 17,0 0,17 -17,0 z M 578,0 l 17,0 0,17 -17,0 z M 595,0 l 17,0 0,17 -17,0 z M 612,0 l 17,0 0,17 -17,0 z M 629,0 l 17,0 0,17 -17,0 z M 646,0 l 17,0 0,17 -17,0 z M 663,0 l 17,0 0,17 -17,0 z M 680,0 l 17,0 0,17 -17,0 z M 0,17 l 17,0 0,17 -17,0 z M 102,17 l 17,0 0,17 -17,0 z M 136,17 l 17,0 0,17 -17,0 z M 153,17 l 17,0 0,17 -17,0 z M 170,17 l 17,0 0,17 -17,0 z M 187,17 l 17,0 0,17 -17,0 z M 221,17 l 17,0 0,17 -17,0 z M 289,17 l 17,0 0,17 -17,0 z M 323,17 l 17,0 0,17 -17,0 z M 374,17 l 17,0 0,17 -17,0 z M 425,17 l 17,0 0,17 -17,0 z M 476,17 l 17,0 0,17 -17,0 z M 510,17 l 17,0 0,17 -17,0 z M 578,17 l 17,0 0,17 -17,0 z M 680,17 l 17,0 0,17 -17,0 z M 0,34 l 17,0 0,17 -17,0 z M 34,34 l 17,0 0,17 -17,0 z M 51,34 l 17,0 0,17 -17,0 z M 68,34 l 17,0 0,17 -17,0 z M 102,34 l 17,0 0,17 -17,0 z M 153,34 l 17,0 0,17 -17,0 z M 170,34 l 17,0 0,17 -17,0 z M 187,34 l 17,0 0,17 -17,0 z M 221,34 l 17,0 0,17 -17,0 z M 255,34 l 17,0 0,17 -17,0 z M 306,34 l 17,0 0,17 -17,0 z M 357,34 l 17,0 0,17 -17,0 z M 391,34 l 17,0 0,17 -17,0 z M 408,34 l 17,0 0,17 -17,0 z M 425,34 l 17,0 0,17 -17,0 z M 442,34 l 17,0 0,17 -17,0 z M 578,34 l 17,0 0,17 -17,0 z M 612,34 l 17,0 0,17 -17,0 z M 629,34 l 17,0 0,17 -17,0 z M 646,34 l 17,0 0,17 -17,0 z M 680,34 l 17,0 0,17 -17,0 z M 0,51 l 17,0 0,17 -17,0 z M 34,51 l 17,0 0,17 -17,0 z M 51,51 l 17,0 0,17 -17,0 z M 68,51 l 17,0 0,17 -17,0 z M 102,51 l 17,0 0,17 -17,0 z M 136,51 l 17,0 0,17 -17,0 z M 153,51 l 17,0 0,17 -17,0 z M 170,51 l 17,0 0,17 -17,0 z M 221,51 l 17,0 0,17 -17,0 z M 255,51 l 17,0 0,17 -17,0 z M 289,51 l 17,0 0,17 -17,0 z M 323,51 l 17,0 0,17 -17,0 z M 374,51 l 17,0 0,17 -17,0 z M 391,51 l 17,0 0,17 -17,0 z M 476,51 l 17,0 0,17 -17,0 z M 510,51 l 17,0 0,17 -17,0 z M 544,51 l 17,0 0,17 -17,0 z M 578,51 l 17,0 0,17 -17,0 z M 612,51 l 17,0 0,17 -17,0 z M 629,51 l 17,0 0,17 -17,0 z M 646,51 l 17,0 0,17 -17,0 z M 680,51 l 17,0 0,17 -17,0 z M 0,68 l 17,0 0,17 -17,0 z M 34,68 l 17,0 0,17 -17,0 z M 51,68 l 17,0 0,17 -17,0 z M 68,68 l 17,0 0,17 -17,0 z M 102,68 l 17,0 0,17 -17,0 z M 255,68 l 17,0 0,17 -17,0 z M 272,68 l 17,0 0,17 -17,0 z M 289,68 l 17,0 0,17 -17,0 z M 306,68 l 17,0 0,17 -17,0 z M 323,68 l 17,0 0,17 -17,0 z M 391,68 l 17,0 0,17 -17,0 z M 408,68 l 17,0 0,17 -17,0 z M 442,68 l 17,0 0,17 -17,0 z M 459,68 l 17,0 0,17 -17,0 z M 510,68 l 17,0 0,17 -17,0 z M 527,68 l 17,0 0,17 -17,0 z M 578,68 l 17,0 0,17 -17,0 z M 612,68 l 17,0 0,17 -17,0 z M 629,68 l 17,0 0,17 -17,0 z M 646,68 l 17,0 0,17 -17,0 z M 680,68 l 17,0 0,17 -17,0 z M 0,85 l 17,0 0,17 -17,0 z M 102,85 l 17,0 0,17 -17,0 z M 136,85 l 17,0 0,17 -17,0 z M 153,85 l 17,0 0,17 -17,0 z M 187,85 l 17,0 0,17 -17,0 z M 323,85 l 17,0 0,17 -17,0 z M 340,85 l 17,0 0,17 -17,0 z M 408,85 l 17,0 0,17 -17,0 z M 425,85 l 17,0 0,17 -17,0 z M 476,85 l 17,0 0,17 -17,0 z M 544,85 l 17,0 0,17 -17,0 z M 578,85 l 17,0 0,17 -17,0 z M 680,85 l 17,0 0,17 -17,0 z M 0,102 l 17,0 0,17 -17,0 z M 17,102 l 17,0 0,17 -17,0 z M 34,102 l 17,0 0,17 -17,0 z M 51,102 l 17,0 0,17 -17,0 z M 68,102 l 17,0 0,17 -17,0 z M 85,102 l 17,0 0,17 -17,0 z M 102,102 l 17,0 0,17 -17,0 z M 136,102 l 17,0 0,17 -17,0 z M 170,102 l 17,0 0,17 -17,0 z M 204,102 l 17,0 0,17 -17,0 z M 238,102 l 17,0 0,17 -17,0 z M 272,102 l 17,0 0,17 -17,0 z M 306,102 l 17,0 0,17 -17,0 z M 340,102 l 17,0 0,17 -17,0 z M 374,102 l 17,0 0,17 -17,0 z M 408,102 l 17,0 0,17 -17,0 z M 442,102 l 17,0 0,17 -17,0 z M 476,102 l 17,0 0,17 -17,0 z M 510,102 l 17,0 0,17 -17,0 z M 544,102 l 17,0 0,17 -17,0 z M 578,102 l 17,0 0,17 -17,0 z M 595,102 l 17,0 0,17 -17,0 z M 612,102 l 17,0 0,17 -17,0 z M 629,102 l 17,0 0,17 -17,0 z M 646,102 l 17,0 0,17 -17,0 z M 663,102 l 17,0 0,17 -17,0 z M 680,102 l 17,0 0,17 -17,0 z M 153,119 l 17,0 0,17 -17,0 z M 187,119 l 17,0 0,17 -17,0 z M 255,119 l 17,0 0,17 -17,0 z M 272,119 l 17,0 0,17 -17,0 z M 306,119 l 17,0 0,17 -17,0 z M 340,119 l 17,0 0,17 -17,0 z M 357,119 l 17,0 0,17 -17,0 z M 374,119 l 17,0 0,17 -17,0 z M 391,119 l 17,0 0,17 -17,0 z M 425,119 l 17,0 0,17 -17,0 z M 442,119 l 17,0 0,17 -17,0 z M 459,119 l 17,0 0,17 -17,0 z M 510,119 l 17,0 0,17 -17,0 z M 527,119 l 17,0 0,17 -17,0 z M 0,136 l 17,0 0,17 -17,0 z M 17,136 l 17,0 0,17 -17,0 z M 34,136 l 17,0 0,17 -17,0 z M 51,136 l 17,0 0,17 -17,0 z M 68,136 l 17,0 0,17 -17,0 z M 102,136 l 17,0 0,17 -17,0 z M 119,136 l 17,0 0,17 -17,0 z M 136,136 l 17,0 0,17 -17,0 z M 221,136 l 17,0 0,17 -17,0 z M 255,136 l 17,0 0,17 -17,0 z M 272,136 l 17,0 0,17 -17,0 z M 289,136 l 17,0 0,17 -17,0 z M 306,136 l 17,0 0,17 -17,0 z M 323,136 l 17,0 0,17 -17,0 z M 340,136 l 17,0 0,17 -17,0 z M 374,136 l 17,0 0,17 -17,0 z M 391,136 l 17,0 0,17 -17,0 z M 408,136 l 17,0 0,17 -17,0 z M 425,136 l 17,0 0,17 -17,0 z M 476,136 l 17,0 0,17 -17,0 z M 493,136 l 17,0 0,17 -17,0 z M 510,136 l 17,0 0,17 -17,0 z M 527,136 l 17,0 0,17 -17,0 z M 561,136 l 17,0 0,17 -17,0 z M 595,136 l 17,0 0,17 -17,0 z M 629,136 l 17,0 0,17 -17,0 z M 663,136 l 17,0 0,17 -17,0 z M 17,153 l 17,0 0,17 -17,0 z M 51,153 l 17,0 0,17 -17,0 z M 68,153 l 17,0 0,17 -17,0 z M 153,153 l 17,0 0,17 -17,0 z M 187,153 l 17,0 0,17 -17,0 z M 204,153 l 17,0 0,17 -17,0 z M 289,153 l 17,0 0,17 -17,0 z M 306,153 l 17,0 0,17 -17,0 z M 408,153 l 17,0 0,17 -17,0 z M 476,153 l 17,0 0,17 -17,0 z M 493,153 l 17,0 0,17 -17,0 z M 510,153 l 17,0 0,17 -17,0 z M 527,153 l 17,0 0,17 -17,0 z M 544,153 l 17,0 0,17 -17,0 z M 561,153 l 17,0 0,17 -17,0 z M 578,153 l 17,0 0,17 -17,0 z M 612,153 l 17,0 0,17 -17,0 z M 629,153 l 17,0 0,17 -17,0 z M 663,153 l 17,0 0,17 -17,0 z M 680,153 l 17,0 0,17 -17,0 z M 0,170 l 17,0 0,17 -17,0 z M 85,170 l 17,0 0,17 -17,0 z M 102,170 l 17,0 0,17 -17,0 z M 119,170 l 17,0 0,17 -17,0 z M 136,170 l 17,0 0,17 -17,0 z M 187,170 l 17,0 0,17 -17,0 z M 238,170 l 17,0 0,17 -17,0 z M 255,170 l 17,0 0,17 -17,0 z M 306,170 l 17,0 0,17 -17,0 z M 340,170 l 17,0 0,17 -17,0 z M 357,170 l 17,0 0,17 -17,0 z M 425,170 l 17,0 0,17 -17,0 z M 459,170 l 17,0 0,17 -17,0 z M 476,170 l 17,0 0,17 -17,0 z M 544,170 l 17,0 0,17 -17,0 z M 561,170 l 17,0 0,17 -17,0 z M 595,170 l 17,0 0,17 -17,0 z M 629,170 l 17,0 0,17 -17,0 z M 663,170 l 17,0 0,17 -17,0 z M 0,187 l 17,0 0,17 -17,0 z M 17,187 l 17,0 0,17 -17,0 z M 51,187 l 17,0 0,17 -17,0 z M 68,187 l 17,0 0,17 -17,0 z M 136,187 l 17,0 0,17 -17,0 z M 170,187 l 17,0 0,17 -17,0 z M 221,187 l 17,0 0,17 -17,0 z M 238,187 l 17,0 0,17 -17,0 z M 289,187 l 17,0 0,17 -17,0 z M 306,187 l 17,0 0,17 -17,0 z M 357,187 l 17,0 0,17 -17,0 z M 374,187 l 17,0 0,17 -17,0 z M 391,187 l 17,0 0,17 -17,0 z M 408,187 l 17,0 0,17 -17,0 z M 425,187 l 17,0 0,17 -17,0 z M 493,187 l 17,0 0,17 -17,0 z M 510,187 l 17,0 0,17 -17,0 z M 561,187 l 17,0 0,17 -17,0 z M 595,187 l 17,0 0,17 -17,0 z M 612,187 l 17,0 0,17 -17,0 z M 663,187 l 17,0 0,17 -17,0 z M 0,204 l 17,0 0,17 -17,0 z M 17,204 l 17,0 0,17 -17,0 z M 34,204 l 17,0 0,17 -17,0 z M 102,204 l 17,0 0,17 -17,0 z M 136,204 l 17,0 0,17 -17,0 z M 204,204 l 17,0 0,17 -17,0 z M 238,204 l 17,0 0,17 -17,0 z M 255,204 l 17,0 0,17 -17,0 z M 306,204 l 17,0 0,17 -17,0 z M 323,204 l 17,0 0,17 -17,0 z M 357,204 l 17,0 0,17 -17,0 z M 374,204 l 17,0 0,17 -17,0 z M 391,204 l 17,0 0,17 -17,0 z M 425,204 l 17,0 0,17 -17,0 z M 442,204 l 17,0 0,17 -17,0 z M 476,204 l 17,0 0,17 -17,0 z M 493,204 l 17,0 0,17 -17,0 z M 510,204 l 17,0 0,17 -17,0 z M 527,204 l 17,0 0,17 -17,0 z M 561,204 l 17,0 0,17 -17,0 z M 578,204 l 17,0 0,17 -17,0 z M 612,204 l 17,0 0,17 -17,0 z M 663,204 l 17,0 0,17 -17,0 z M 0,221 l 17,0 0,17 -17,0 z M 34,221 l 17,0 0,17 -17,0 z M 85,221 l 17,0 0,17 -17,0 z M 119,221 l 17,0 0,17 -17,0 z M 136,221 l 17,0 0,17 -17,0 z M 153,221 l 17,0 0,17 -17,0 z M 306,221 l 17,0 0,17 -17,0 z M 340,221 l 17,0 0,17 -17,0 z M 357,221 l 17,0 0,17 -17,0 z M 408,221 l 17,0 0,17 -17,0 z M 493,221 l 17,0 0,17 -17,0 z M 544,221 l 17,0 0,17 -17,0 z M 561,221 l 17,0 0,17 -17,0 z M 646,221 l 17,0 0,17 -17,0 z M 663,221 l 17,0 0,17 -17,0 z M 680,221 l 17,0 0,17 -17,0 z M 17,238 l 17,0 0,17 -17,0 z M 68,238 l 17,0 0,17 -17,0 z M 102,238 l 17,0 0,17 -17,0 z M 119,238 l 17,0 0,17 -17,0 z M 136,238 l 17,0 0,17 -17,0 z M 187,238 l 17,0 0,17 -17,0 z M 204,238 l 17,0 0,17 -17,0 z M 255,238 l 17,0 0,17 -17,0 z M 306,238 l 17,0 0,17 -17,0 z M 357,238 l 17,0 0,17 -17,0 z M 391,238 l 17,0 0,17 -17,0 z M 425,238 l 17,0 0,17 -17,0 z M 459,238 l 17,0 0,17 -17,0 z M 476,238 l 17,0 0,17 -17,0 z M 493,238 l 17,0 0,17 -17,0 z M 527,238 l 17,0 0,17 -17,0 z M 561,238 l 17,0 0,17 -17,0 z M 578,238 l 17,0 0,17 -17,0 z M 663,238 l 17,0 0,17 -17,0 z M 0,255 l 17,0 0,17 -17,0 z M 17,255 l 17,0 0,17 -17,0 z M 34,255 l 17,0 0,17 -17,0 z M 51,255 l 17,0 0,17 -17,0 z M 119,255 l 17,0 0,17 -17,0 z M 136,255 l 17,0 0,17 -17,0 z M 170,255 l 17,0 0,17 -17,0 z M 187,255 l 17,0 0,17 -17,0 z M 221,255 l 17,0 0,17 -17,0 z M 238,255 l 17,0 0,17 -17,0 z M 255,255 l 17,0 0,17 -17,0 z M 340,255 l 17,0 0,17 -17,0 z M 357,255 l 17,0 0,17 -17,0 z M 374,255 l 17,0 0,17 -17,0 z M 408,255 l 17,0 0,17 -17,0 z M 442,255 l 17,0 0,17 -17,0 z M 476,255 l 17,0 0,17 -17,0 z M 510,255 l 17,0 0,17 -17,0 z M 561,255 l 17,0 0,17 -17,0 z M 595,255 l 17,0 0,17 -17,0 z M 680,255 l 17,0 0,17 -17,0 z M 51,272 l 17,0 0,17 -17,0 z M 85,272 l 17,0 0,17 -17,0 z M 102,272 l 17,0 0,17 -17,0 z M 119,272 l 17,0 0,17 -17,0 z M 170,272 l 17,0 0,17 -17,0 z M 187,272 l 17,0 0,17 -17,0 z M 204,272 l 17,0 0,17 -17,0 z M 221,272 l 17,0 0,17 -17,0 z M 255,272 l 17,0 0,17 -17,0 z M 272,272 l 17,0 0,17 -17,0 z M 289,272 l 17,0 0,17 -17,0 z M 306,272 l 17,0 0,17 -17,0 z M 340,272 l 17,0 0,17 -17,0 z M 374,272 l 17,0 0,17 -17,0 z M 391,272 l 17,0 0,17 -17,0 z M 408,272 l 17,0 0,17 -17,0 z M 425,272 l 17,0 0,17 -17,0 z M 459,272 l 17,0 0,17 -17,0 z M 476,272 l 17,0 0,17 -17,0 z M 493,272 l 17,0 0,17 -17,0 z M 510,272 l 17,0 0,17 -17,0 z M 561,272 l 17,0 0,17 -17,0 z M 578,272 l 17,0 0,17 -17,0 z M 595,272 l 17,0 0,17 -17,0 z M 663,272 l 17,0 0,17 -17,0 z M 34,289 l 17,0 0,17 -17,0 z M 51,289 l 17,0 0,17 -17,0 z M 68,289 l 17,0 0,17 -17,0 z M 85,289 l 17,0 0,17 -17,0 z M 119,289 l 17,0 0,17 -17,0 z M 153,289 l 17,0 0,17 -17,0 z M 170,289 l 17,0 0,17 -17,0 z M 204,289 l 17,0 0,17 -17,0 z M 238,289 l 17,0 0,17 -17,0 z M 357,289 l 17,0 0,17 -17,0 z M 374,289 l 17,0 0,17 -17,0 z M 391,289 l 17,0 0,17 -17,0 z M 425,289 l 17,0 0,17 -17,0 z M 510,289 l 17,0 0,17 -17,0 z M 527,289 l 17,0 0,17 -17,0 z M 544,289 l 17,0 0,17 -17,0 z M 561,289 l 17,0 0,17 -17,0 z M 578,289 l 17,0 0,17 -17,0 z M 595,289 l 17,0 0,17 -17,0 z M 612,289 l 17,0 0,17 -17,0 z M 646,289 l 17,0 0,17 -17,0 z M 680,289 l 17,0 0,17 -17,0 z M 17,306 l 17,0 0,17 -17,0 z M 34,306 l 17,0 0,17 -17,0 z M 68,306 l 17,0 0,17 -17,0 z M 85,306 l 17,0 0,17 -17,0 z M 102,306 l 17,0 0,17 -17,0 z M 119,306 l 17,0 0,17 -17,0 z M 221,306 l 17,0 0,17 -17,0 z M 255,306 l 17,0 0,17 -17,0 z M 357,306 l 17,0 0,17 -17,0 z M 374,306 l 17,0 0,17 -17,0 z M 459,306 l 17,0 0,17 -17,0 z M 476,306 l 17,0 0,17 -17,0 z M 510,306 l 17,0 0,17 -17,0 z M 544,306 l 17,0 0,17 -17,0 z M 595,306 l 17,0 0,17 -17,0 z M 612,306 l 17,0 0,17 -17,0 z M 646,306 l 17,0 0,17 -17,0 z M 663,306 l 17,0 0,17 -17,0 z M 0,323 l 17,0 0,17 -17,0 z M 34,323 l 17,0 0,17 -17,0 z M 68,323 l 17,0 0,17 -17,0 z M 119,323 l 17,0 0,17 -17,0 z M 153,323 l 17,0 0,17 -17,0 z M 204,323 l 17,0 0,17 -17,0 z M 221,323 l 17,0 0,17 -17,0 z M 255,323 l 17,0 0,17 -17,0 z M 306,323 l 17,0 0,17 -17,0 z M 357,323 l 17,0 0,17 -17,0 z M 391,323 l 17,0 0,17 -17,0 z M 408,323 l 17,0 0,17 -17,0 z M 442,323 l 17,0 0,17 -17,0 z M 493,323 l 17,0 0,17 -17,0 z M 527,323 l 17,0 0,17 -17,0 z M 561,323 l 17,0 0,17 -17,0 z M 578,323 l 17,0 0,17 -17,0 z M 595,323 l 17,0 0,17 -17,0 z M 612,323 l 17,0 0,17 -17,0 z M 646,323 l 17,0 0,17 -17,0 z M 663,323 l 17,0 0,17 -17,0 z M 680,323 l 17,0 0,17 -17,0 z M 0,340 l 17,0 0,17 -17,0 z M 17,340 l 17,0 0,17 -17,0 z M 51,340 l 17,0 0,17 -17,0 z M 68,340 l 17,0 0,17 -17,0 z M 85,340 l 17,0 0,17 -17,0 z M 102,340 l 17,0 0,17 -17,0 z M 170,340 l 17,0 0,17 -17,0 z M 204,340 l 17,0 0,17 -17,0 z M 221,340 l 17,0 0,17 -17,0 z M 238,340 l 17,0 0,17 -17,0 z M 255,340 l 17,0 0,17 -17,0 z M 272,340 l 17,0 0,17 -17,0 z M 306,340 l 17,0 0,17 -17,0 z M 323,340 l 17,0 0,17 -17,0 z M 357,340 l 17,0 0,17 -17,0 z M 391,340 l 17,0 0,17 -17,0 z M 408,340 l 17,0 0,17 -17,0 z M 425,340 l 17,0 0,17 -17,0 z M 510,340 l 17,0 0,17 -17,0 z M 527,340 l 17,0 0,17 -17,0 z M 561,340 l 17,0 0,17 -17,0 z M 612,340 l 17,0 0,17 -17,0 z M 629,340 l 17,0 0,17 -17,0 z M 663,340 l 17,0 0,17 -17,0 z M 680,340 l 17,0 0,17 -17,0 z M 34,357 l 17,0 0,17 -17,0 z M 85,357 l 17,0 0,17 -17,0 z M 136,357 l 17,0 0,17 -17,0 z M 170,357 l 17,0 0,17 -17,0 z M 204,357 l 17,0 0,17 -17,0 z M 255,357 l 17,0 0,17 -17,0 z M 306,357 l 17,0 0,17 -17,0 z M 357,357 l 17,0 0,17 -17,0 z M 374,357 l 17,0 0,17 -17,0 z M 425,357 l 17,0 0,17 -17,0 z M 442,357 l 17,0 0,17 -17,0 z M 459,357 l 17,0 0,17 -17,0 z M 476,357 l 17,0 0,17 -17,0 z M 510,357 l 17,0 0,17 -17,0 z M 612,357 l 17,0 0,17 -17,0 z M 663,357 l 17,0 0,17 -17,0 z M 0,374 l 17,0 0,17 -17,0 z M 17,374 l 17,0 0,17 -17,0 z M 85,374 l 17,0 0,17 -17,0 z M 102,374 l 17,0 0,17 -17,0 z M 119,374 l 17,0 0,17 -17,0 z M 136,374 l 17,0 0,17 -17,0 z M 153,374 l 17,0 0,17 -17,0 z M 221,374 l 17,0 0,17 -17,0 z M 238,374 l 17,0 0,17 -17,0 z M 255,374 l 17,0 0,17 -17,0 z M 272,374 l 17,0 0,17 -17,0 z M 289,374 l 17,0 0,17 -17,0 z M 408,374 l 17,0 0,17 -17,0 z M 425,374 l 17,0 0,17 -17,0 z M 459,374 l 17,0 0,17 -17,0 z M 510,374 l 17,0 0,17 -17,0 z M 527,374 l 17,0 0,17 -17,0 z M 578,374 l 17,0 0,17 -17,0 z M 663,374 l 17,0 0,17 -17,0 z M 68,391 l 17,0 0,17 -17,0 z M 170,391 l 17,0 0,17 -17,0 z M 204,391 l 17,0 0,17 -17,0 z M 221,391 l 17,0 0,17 -17,0 z M 238,391 l 17,0 0,17 -17,0 z M 255,391 l 17,0 0,17 -17,0 z M 289,391 l 17,0 0,17 -17,0 z M 323,391 l 17,0 0,17 -17,0 z M 357,391 l 17,0 0,17 -17,0 z M 374,391 l 17,0 0,17 -17,0 z M 425,391 l 17,0 0,17 -17,0 z M 442,391 l 17,0 0,17 -17,0 z M 476,391 l 17,0 0,17 -17,0 z M 493,391 l 17,0 0,17 -17,0 z M 510,391 l 17,0 0,17 -17,0 z M 527,391 l 17,0 0,17 -17,0 z M 544,391 l 17,0 0,17 -17,0 z M 578,391 l 17,0 0,17 -17,0 z M 595,391 l 17,0 0,17 -17,0 z M 663,391 l 17,0 0,17 -17,0 z M 0,408 l 17,0 0,17 -17,0 z M 17,408 l 17,0 0,17 -17,0 z M 51,408 l 17,0 0,17 -17,0 z M 85,408 l 17,0 0,17 -17,0 z M 102,408 l 17,0 0,17 -17,0 z M 170,408 l 17,0 0,17 -17,0 z M 204,408 l 17,0 0,17 -17,0 z M 221,408 l 17,0 0,17 -17,0 z M 255,408 l 17,0 0,17 -17,0 z M 272,408 l 17,0 0,17 -17,0 z M 289,408 l 17,0 0,17 -17,0 z M 306,408 l 17,0 0,17 -17,0 z M 340,408 l 17,0 0,17 -17,0 z M 357,408 l 17,0 0,17 -17,0 z M 493,408 l 17,0 0,17 -17,0 z M 510,408 l 17,0 0,17 -17,0 z M 544,408 l 17,0 0,17 -17,0 z M 578,408 l 17,0 0,17 -17,0 z M 612,408 l 17,0 0,17 -17,0 z M 646,408 l 17,0 0,17 -17,0 z M 663,408 l 17,0 0,17 -17,0 z M 0,425 l 17,0 0,17 -17,0 z M 34,425 l 17,0 0,17 -17,0 z M 85,425 l 17,0 0,17 -17,0 z M 238,425 l 17,0 0,17 -17,0 z M 255,425 l 17,0 0,17 -17,0 z M 357,425 l 17,0 0,17 -17,0 z M 374,425 l 17,0 0,17 -17,0 z M 391,425 l 17,0 0,17 -17,0 z M 408,425 l 17,0 0,17 -17,0 z M 425,425 l 17,0 0,17 -17,0 z M 442,425 l 17,0 0,17 -17,0 z M 459,425 l 17,0 0,17 -17,0 z M 527,425 l 17,0 0,17 -17,0 z M 544,425 l 17,0 0,17 -17,0 z M 612,425 l 17,0 0,17 -17,0 z M 629,425 l 17,0 0,17 -17,0 z M 663,425 l 17,0 0,17 -17,0 z M 680,425 l 17,0 0,17 -17,0 z M 17,442 l 17,0 0,17 -17,0 z M 68,442 l 17,0 0,17 -17,0 z M 102,442 l 17,0 0,17 -17,0 z M 119,442 l 17,0 0,17 -17,0 z M 136,442 l 17,0 0,17 -17,0 z M 153,442 l 17,0 0,17 -17,0 z M 204,442 l 17,0 0,17 -17,0 z M 238,442 l 17,0 0,17 -17,0 z M 272,442 l 17,0 0,17 -17,0 z M 340,442 l 17,0 0,17 -17,0 z M 442,442 l 17,0 0,17 -17,0 z M 459,442 l 17,0 0,17 -17,0 z M 476,442 l 17,0 0,17 -17,0 z M 544,442 l 17,0 0,17 -17,0 z M 578,442 l 17,0 0,17 -17,0 z M 595,442 l 17,0 0,17 -17,0 z M 612,442 l 17,0 0,17 -17,0 z M 646,442 l 17,0 0,17 -17,0 z M 663,442 l 17,0 0,17 -17,0 z M 680,442 l 17,0 0,17 -17,0 z M 34,459 l 17,0 0,17 -17,0 z M 119,459 l 17,0 0,17 -17,0 z M 136,459 l 17,0 0,17 -17,0 z M 153,459 l 17,0 0,17 -17,0 z M 187,459 l 17,0 0,17 -17,0 z M 272,459 l 17,0 0,17 -17,0 z M 306,459 l 17,0 0,17 -17,0 z M 357,459 l 17,0 0,17 -17,0 z M 374,459 l 17,0 0,17 -17,0 z M 391,459 l 17,0 0,17 -17,0 z M 408,459 l 17,0 0,17 -17,0 z M 425,459 l 17,0 0,17 -17,0 z M 527,459 l 17,0 0,17 -17,0 z M 544,459 l 17,0 0,17 -17,0 z M 663,459 l 17,0 0,17 -17,0 z M 68,476 l 17,0 0,17 -17,0 z M 85,476 l 17,0 0,17 -17,0 z M 102,476 l 17,0 0,17 -17,0 z M 119,476 l 17,0 0,17 -17,0 z M 153,476 l 17,0 0,17 -17,0 z M 204,476 l 17,0 0,17 -17,0 z M 255,476 l 17,0 0,17 -17,0 z M 323,476 l 17,0 0,17 -17,0 z M 357,476 l 17,0 0,17 -17,0 z M 408,476 l 17,0 0,17 -17,0 z M 442,476 l 17,0 0,17 -17,0 z M 493,476 l 17,0 0,17 -17,0 z M 527,476 l 17,0 0,17 -17,0 z M 544,476 l 17,0 0,17 -17,0 z M 561,476 l 17,0 0,17 -17,0 z M 578,476 l 17,0 0,17 -17,0 z M 612,476 l 17,0 0,17 -17,0 z M 680,476 l 17,0 0,17 -17,0 z M 0,493 l 17,0 0,17 -17,0 z M 34,493 l 17,0 0,17 -17,0 z M 119,493 l 17,0 0,17 -17,0 z M 136,493 l 17,0 0,17 -17,0 z M 221,493 l 17,0 0,17 -17,0 z M 272,493 l 17,0 0,17 -17,0 z M 306,493 l 17,0 0,17 -17,0 z M 323,493 l 17,0 0,17 -17,0 z M 340,493 l 17,0 0,17 -17,0 z M 408,493 l 17,0 0,17 -17,0 z M 442,493 l 17,0 0,17 -17,0 z M 510,493 l 17,0 0,17 -17,0 z M 561,493 l 17,0 0,17 -17,0 z M 663,493 l 17,0 0,17 -17,0 z M 0,510 l 17,0 0,17 -17,0 z M 68,510 l 17,0 0,17 -17,0 z M 85,510 l 17,0 0,17 -17,0 z M 102,510 l 17,0 0,17 -17,0 z M 119,510 l 17,0 0,17 -17,0 z M 136,510 l 17,0 0,17 -17,0 z M 153,510 l 17,0 0,17 -17,0 z M 170,510 l 17,0 0,17 -17,0 z M 204,510 l 17,0 0,17 -17,0 z M 255,510 l 17,0 0,17 -17,0 z M 289,510 l 17,0 0,17 -17,0 z M 340,510 l 17,0 0,17 -17,0 z M 408,510 l 17,0 0,17 -17,0 z M 425,510 l 17,0 0,17 -17,0 z M 459,510 l 17,0 0,17 -17,0 z M 493,510 l 17,0 0,17 -17,0 z M 510,510 l 17,0 0,17 -17,0 z M 527,510 l 17,0 0,17 -17,0 z M 561,510 l 17,0 0,17 -17,0 z M 578,510 l 17,0 0,17 -17,0 z M 629,510 l 17,0 0,17 -17,0 z M 663,510 l 17,0 0,17 -17,0 z M 680,510 l 17,0 0,17 -17,0 z M 0,527 l 17,0 0,17 -17,0 z M 136,527 l 17,0 0,17 -17,0 z M 153,527 l 17,0 0,17 -17,0 z M 187,527 l 17,0 0,17 -17,0 z M 204,527 l 17,0 0,17 -17,0 z M 255,527 l 17,0 0,17 -17,0 z M 306,527 l 17,0 0,17 -17,0 z M 323,527 l 17,0 0,17 -17,0 z M 357,527 l 17,0 0,17 -17,0 z M 374,527 l 17,0 0,17 -17,0 z M 408,527 l 17,0 0,17 -17,0 z M 425,527 l 17,0 0,17 -17,0 z M 442,527 l 17,0 0,17 -17,0 z M 493,527 l 17,0 0,17 -17,0 z M 527,527 l 17,0 0,17 -17,0 z M 578,527 l 17,0 0,17 -17,0 z M 680,527 l 17,0 0,17 -17,0 z M 0,544 l 17,0 0,17 -17,0 z M 51,544 l 17,0 0,17 -17,0 z M 68,544 l 17,0 0,17 -17,0 z M 85,544 l 17,0 0,17 -17,0 z M 102,544 l 17,0 0,17 -17,0 z M 119,544 l 17,0 0,17 -17,0 z M 136,544 l 17,0 0,17 -17,0 z M 153,544 l 17,0 0,17 -17,0 z M 170,544 l 17,0 0,17 -17,0 z M 204,544 l 17,0 0,17 -17,0 z M 221,544 l 17,0 0,17 -17,0 z M 255,544 l 17,0 0,17 -17,0 z M 272,544 l 17,0 0,17 -17,0 z M 289,544 l 17,0 0,17 -17,0 z M 323,544 l 17,0 0,17 -17,0 z M 374,544 l 17,0 0,17 -17,0 z M 408,544 l 17,0 0,17 -17,0 z M 493,544 l 17,0 0,17 -17,0 z M 510,544 l 17,0 0,17 -17,0 z M 544,544 l 17,0 0,17 -17,0 z M 561,544 l 17,0 0,17 -17,0 z M 578,544 l 17,0 0,17 -17,0 z M 595,544 l 17,0 0,17 -17,0 z M 612,544 l 17,0 0,17 -17,0 z M 646,544 l 17,0 0,17 -17,0 z M 663,544 l 17,0 0,17 -17,0 z M 136,561 l 17,0 0,17 -17,0 z M 170,561 l 17,0 0,17 -17,0 z M 204,561 l 17,0 0,17 -17,0 z M 238,561 l 17,0 0,17 -17,0 z M 306,561 l 17,0 0,17 -17,0 z M 374,561 l 17,0 0,17 -17,0 z M 408,561 l 17,0 0,17 -17,0 z M 425,561 l 17,0 0,17 -17,0 z M 442,561 l 17,0 0,17 -17,0 z M 459,561 l 17,0 0,17 -17,0 z M 476,561 l 17,0 0,17 -17,0 z M 510,561 l 17,0 0,17 -17,0 z M 527,561 l 17,0 0,17 -17,0 z M 544,561 l 17,0 0,17 -17,0 z M 612,561 l 17,0 0,17 -17,0 z M 629,561 l 17,0 0,17 -17,0 z M 663,561 l 17,0 0,17 -17,0 z M 0,578 l 17,0 0,17 -17,0 z M 17,578 l 17,0 0,17 -17,0 z M 34,578 l 17,0 0,17 -17,0 z M 51,578 l 17,0 0,17 -17,0 z M 68,578 l 17,0 0,17 -17,0 z M 85,578 l 17,0 0,17 -17,0 z M 102,578 l 17,0 0,17 -17,0 z M 136,578 l 17,0 0,17 -17,0 z M 170,578 l 17,0 0,17 -17,0 z M 204,578 l 17,0 0,17 -17,0 z M 221,578 l 17,0 0,17 -17,0 z M 272,578 l 17,0 0,17 -17,0 z M 289,578 l 17,0 0,17 -17,0 z M 306,578 l 17,0 0,17 -17,0 z M 374,578 l 17,0 0,17 -17,0 z M 408,578 l 17,0 0,17 -17,0 z M 425,578 l 17,0 0,17 -17,0 z M 459,578 l 17,0 0,17 -17,0 z M 476,578 l 17,0 0,17 -17,0 z M 510,578 l 17,0 0,17 -17,0 z M 527,578 l 17,0 0,17 -17,0 z M 544,578 l 17,0 0,17 -17,0 z M 578,578 l 17,0 0,17 -17,0 z M 612,578 l 17,0 0,17 -17,0 z M 629,578 l 17,0 0,17 -17,0 z M 646,578 l 17,0 0,17 -17,0 z M 0,595 l 17,0 0,17 -17,0 z M 102,595 l 17,0 0,17 -17,0 z M 153,595 l 17,0 0,17 -17,0 z M 204,595 l 17,0 0,17 -17,0 z M 238,595 l 17,0 0,17 -17,0 z M 255,595 l 17,0 0,17 -17,0 z M 323,595 l 17,0 0,17 -17,0 z M 357,595 l 17,0 0,17 -17,0 z M 391,595 l 17,0 0,17 -17,0 z M 408,595 l 17,0 0,17 -17,0 z M 493,595 l 17,0 0,17 -17,0 z M 544,595 l 17,0 0,17 -17,0 z M 612,595 l 17,0 0,17 -17,0 z M 663,595 l 17,0 0,17 -17,0 z M 680,595 l 17,0 0,17 -17,0 z M 0,612 l 17,0 0,17 -17,0 z M 34,612 l 17,0 0,17 -17,0 z M 51,612 l 17,0 0,17 -17,0 z M 68,612 l 17,0 0,17 -17,0 z M 102,612 l 17,0 0,17 -17,0 z M 136,612 l 17,0 0,17 -17,0 z M 238,612 l 17,0 0,17 -17,0 z M 255,612 l 17,0 0,17 -17,0 z M 272,612 l 17,0 0,17 -17,0 z M 289,612 l 17,0 0,17 -17,0 z M 323,612 l 17,0 0,17 -17,0 z M 374,612 l 17,0 0,17 -17,0 z M 391,612 l 17,0 0,17 -17,0 z M 408,612 l 17,0 0,17 -17,0 z M 425,612 l 17,0 0,17 -17,0 z M 459,612 l 17,0 0,17 -17,0 z M 493,612 l 17,0 0,17 -17,0 z M 544,612 l 17,0 0,17 -17,0 z M 561,612 l 17,0 0,17 -17,0 z M 578,612 l 17,0 0,17 -17,0 z M 595,612 l 17,0 0,17 -17,0 z M 612,612 l 17,0 0,17 -17,0 z M 629,612 l 17,0 0,17 -17,0 z M 0,629 l 17,0 0,17 -17,0 z M 34,629 l 17,0 0,17 -17,0 z M 51,629 l 17,0 0,17 -17,0 z M 68,629 l 17,0 0,17 -17,0 z M 102,629 l 17,0 0,17 -17,0 z M 136,629 l 17,0 0,17 -17,0 z M 153,629 l 17,0 0,17 -17,0 z M 187,629 l 17,0 0,17 -17,0 z M 204,629 l 17,0 0,17 -17,0 z M 272,629 l 17,0 0,17 -17,0 z M 306,629 l 17,0 0,17 -17,0 z M 323,629 l 17,0 0,17 -17,0 z M 374,629 l 17,0 0,17 -17,0 z M 408,629 l 17,0 0,17 -17,0 z M 442,629 l 17,0 0,17 -17,0 z M 459,629 l 17,0 0,17 -17,0 z M 476,629 l 17,0 0,17 -17,0 z M 510,629 l 17,0 0,17 -17,0 z M 527,629 l 17,0 0,17 -17,0 z M 612,629 l 17,0 0,17 -17,0 z M 629,629 l 17,0 0,17 -17,0 z M 663,629 l 17,0 0,17 -17,0 z M 0,646 l 17,0 0,17 -17,0 z M 34,646 l 17,0 0,17 -17,0 z M 51,646 l 17,0 0,17 -17,0 z M 68,646 l 17,0 0,17 -17,0 z M 102,646 l 17,0 0,17 -17,0 z M 136,646 l 17,0 0,17 -17,0 z M 153,646 l 17,0 0,17 -17,0 z M 204,646 l 17,0 0,17 -17,0 z M 255,646 l 17,0 0,17 -17,0 z M 272,646 l 17,0 0,17 -17,0 z M 306,646 l 17,0 0,17 -17,0 z M 323,646 l 17,0 0,17 -17,0 z M 425,646 l 17,0 0,17 -17,0 z M 459,646 l 17,0 0,17 -17,0 z M 476,646 l 17,0 0,17 -17,0 z M 493,646 l 17,0 0,17 -17,0 z M 510,646 l 17,0 0,17 -17,0 z M 595,646 l 17,0 0,17 -17,0 z M 612,646 l 17,0 0,17 -17,0 z M 646,646 l 17,0 0,17 -17,0 z M 663,646 l 17,0 0,17 -17,0 z M 0,663 l 17,0 0,17 -17,0 z M 102,663 l 17,0 0,17 -17,0 z M 136,663 l 17,0 0,17 -17,0 z M 170,663 l 17,0 0,17 -17,0 z M 187,663 l 17,0 0,17 -17,0 z M 204,663 l 17,0 0,17 -17,0 z M 221,663 l 17,0 0,17 -17,0 z M 272,663 l 17,0 0,17 -17,0 z M 289,663 l 17,0 0,17 -17,0 z M 357,663 l 17,0 0,17 -17,0 z M 374,663 l 17,0 0,17 -17,0 z M 408,663 l 17,0 0,17 -17,0 z M 442,663 l 17,0 0,17 -17,0 z M 476,663 l 17,0 0,17 -17,0 z M 561,663 l 17,0 0,17 -17,0 z M 578,663 l 17,0 0,17 -17,0 z M 612,663 l 17,0 0,17 -17,0 z M 0,680 l 17,0 0,17 -17,0 z M 17,680 l 17,0 0,17 -17,0 z M 34,680 l 17,0 0,17 -17,0 z M 51,680 l 17,0 0,17 -17,0 z M 68,680 l 17,0 0,17 -17,0 z M 85,680 l 17,0 0,17 -17,0 z M 102,680 l 17,0 0,17 -17,0 z M 136,680 l 17,0 0,17 -17,0 z M 272,680 l 17,0 0,17 -17,0 z M 374,680 l 17,0 0,17 -17,0 z M 391,680 l 17,0 0,17 -17,0 z M 408,680 l 17,0 0,17 -17,0 z M 459,680 l 17,0 0,17 -17,0 z M 561,680 l 17,0 0,17 -17,0 z M 612,680 l 17,0 0,17 -17,0 z M 629,680 l 17,0 0,17 -17,0 z M 646,680 l 17,0 0,17 -17,0 z M 663,680 l 17,0 0,17 -17,0 z " />
	</g>
</svg>
