<?xml version="1.0" standalone="no"?>
<svg xmlns="http://www.w3.org/2000/svg" version="1.1" width="696" height="696">
	<!-- Created with https://api.qrserver.com (QR Code API, see goQR.me/api for information) -->
	<title>QR Code</title>
	<desc>https://chat.whatsapp.com/CmzZCNsNenY8RKFxeOVwLA</desc>
	<rect style="fill:rgb(255, 255, 255);fill-opacity:1" x="0" y="0" width="696" height="696" />
	<g id="elements">
		<path style="fill:rgb(0, 0, 0)" d="M 0,0 l 24,0 0,24 -24,0 z M 24,0 l 24,0 0,24 -24,0 z M 48,0 l 24,0 0,24 -24,0 z M 72,0 l 24,0 0,24 -24,0 z M 96,0 l 24,0 0,24 -24,0 z M 120,0 l 24,0 0,24 -24,0 z M 144,0 l 24,0 0,24 -24,0 z M 240,0 l 24,0 0,24 -24,0 z M 288,0 l 24,0 0,24 -24,0 z M 312,0 l 24,0 0,24 -24,0 z M 336,0 l 24,0 0,24 -24,0 z M 360,0 l 24,0 0,24 -24,0 z M 384,0 l 24,0 0,24 -24,0 z M 432,0 l 24,0 0,24 -24,0 z M 456,0 l 24,0 0,24 -24,0 z M 480,0 l 24,0 0,24 -24,0 z M 528,0 l 24,0 0,24 -24,0 z M 552,0 l 24,0 0,24 -24,0 z M 576,0 l 24,0 0,24 -24,0 z M 600,0 l 24,0 0,24 -24,0 z M 624,0 l 24,0 0,24 -24,0 z M 648,0 l 24,0 0,24 -24,0 z M 672,0 l 24,0 0,24 -24,0 z M 0,24 l 24,0 0,24 -24,0 z M 144,24 l 24,0 0,24 -24,0 z M 192,24 l 24,0 0,24 -24,0 z M 240,24 l 24,0 0,24 -24,0 z M 360,24 l 24,0 0,24 -24,0 z M 408,24 l 24,0 0,24 -24,0 z M 432,24 l 24,0 0,24 -24,0 z M 528,24 l 24,0 0,24 -24,0 z M 672,24 l 24,0 0,24 -24,0 z M 0,48 l 24,0 0,24 -24,0 z M 48,48 l 24,0 0,24 -24,0 z M 72,48 l 24,0 0,24 -24,0 z M 96,48 l 24,0 0,24 -24,0 z M 144,48 l 24,0 0,24 -24,0 z M 288,48 l 24,0 0,24 -24,0 z M 336,48 l 24,0 0,24 -24,0 z M 384,48 l 24,0 0,24 -24,0 z M 456,48 l 24,0 0,24 -24,0 z M 480,48 l 24,0 0,24 -24,0 z M 528,48 l 24,0 0,24 -24,0 z M 576,48 l 24,0 0,24 -24,0 z M 600,48 l 24,0 0,24 -24,0 z M 624,48 l 24,0 0,24 -24,0 z M 672,48 l 24,0 0,24 -24,0 z M 0,72 l 24,0 0,24 -24,0 z M 48,72 l 24,0 0,24 -24,0 z M 72,72 l 24,0 0,24 -24,0 z M 96,72 l 24,0 0,24 -24,0 z M 144,72 l 24,0 0,24 -24,0 z M 192,72 l 24,0 0,24 -24,0 z M 216,72 l 24,0 0,24 -24,0 z M 240,72 l 24,0 0,24 -24,0 z M 288,72 l 24,0 0,24 -24,0 z M 312,72 l 24,0 0,24 -24,0 z M 408,72 l 24,0 0,24 -24,0 z M 456,72 l 24,0 0,24 -24,0 z M 528,72 l 24,0 0,24 -24,0 z M 576,72 l 24,0 0,24 -24,0 z M 600,72 l 24,0 0,24 -24,0 z M 624,72 l 24,0 0,24 -24,0 z M 672,72 l 24,0 0,24 -24,0 z M 0,96 l 24,0 0,24 -24,0 z M 48,96 l 24,0 0,24 -24,0 z M 72,96 l 24,0 0,24 -24,0 z M 96,96 l 24,0 0,24 -24,0 z M 144,96 l 24,0 0,24 -24,0 z M 216,96 l 24,0 0,24 -24,0 z M 312,96 l 24,0 0,24 -24,0 z M 336,96 l 24,0 0,24 -24,0 z M 384,96 l 24,0 0,24 -24,0 z M 408,96 l 24,0 0,24 -24,0 z M 432,96 l 24,0 0,24 -24,0 z M 456,96 l 24,0 0,24 -24,0 z M 528,96 l 24,0 0,24 -24,0 z M 576,96 l 24,0 0,24 -24,0 z M 600,96 l 24,0 0,24 -24,0 z M 624,96 l 24,0 0,24 -24,0 z M 672,96 l 24,0 0,24 -24,0 z M 0,120 l 24,0 0,24 -24,0 z M 144,120 l 24,0 0,24 -24,0 z M 192,120 l 24,0 0,24 -24,0 z M 216,120 l 24,0 0,24 -24,0 z M 264,120 l 24,0 0,24 -24,0 z M 288,120 l 24,0 0,24 -24,0 z M 360,120 l 24,0 0,24 -24,0 z M 384,120 l 24,0 0,24 -24,0 z M 408,120 l 24,0 0,24 -24,0 z M 528,120 l 24,0 0,24 -24,0 z M 672,120 l 24,0 0,24 -24,0 z M 0,144 l 24,0 0,24 -24,0 z M 24,144 l 24,0 0,24 -24,0 z M 48,144 l 24,0 0,24 -24,0 z M 72,144 l 24,0 0,24 -24,0 z M 96,144 l 24,0 0,24 -24,0 z M 120,144 l 24,0 0,24 -24,0 z M 144,144 l 24,0 0,24 -24,0 z M 192,144 l 24,0 0,24 -24,0 z M 240,144 l 24,0 0,24 -24,0 z M 288,144 l 24,0 0,24 -24,0 z M 336,144 l 24,0 0,24 -24,0 z M 384,144 l 24,0 0,24 -24,0 z M 432,144 l 24,0 0,24 -24,0 z M 480,144 l 24,0 0,24 -24,0 z M 528,144 l 24,0 0,24 -24,0 z M 552,144 l 24,0 0,24 -24,0 z M 576,144 l 24,0 0,24 -24,0 z M 600,144 l 24,0 0,24 -24,0 z M 624,144 l 24,0 0,24 -24,0 z M 648,144 l 24,0 0,24 -24,0 z M 672,144 l 24,0 0,24 -24,0 z M 216,168 l 24,0 0,24 -24,0 z M 240,168 l 24,0 0,24 -24,0 z M 264,168 l 24,0 0,24 -24,0 z M 360,168 l 24,0 0,24 -24,0 z M 384,168 l 24,0 0,24 -24,0 z M 0,192 l 24,0 0,24 -24,0 z M 24,192 l 24,0 0,24 -24,0 z M 48,192 l 24,0 0,24 -24,0 z M 72,192 l 24,0 0,24 -24,0 z M 96,192 l 24,0 0,24 -24,0 z M 144,192 l 24,0 0,24 -24,0 z M 168,192 l 24,0 0,24 -24,0 z M 192,192 l 24,0 0,24 -24,0 z M 216,192 l 24,0 0,24 -24,0 z M 264,192 l 24,0 0,24 -24,0 z M 288,192 l 24,0 0,24 -24,0 z M 336,192 l 24,0 0,24 -24,0 z M 360,192 l 24,0 0,24 -24,0 z M 408,192 l 24,0 0,24 -24,0 z M 480,192 l 24,0 0,24 -24,0 z M 504,192 l 24,0 0,24 -24,0 z M 552,192 l 24,0 0,24 -24,0 z M 600,192 l 24,0 0,24 -24,0 z M 648,192 l 24,0 0,24 -24,0 z M 120,216 l 24,0 0,24 -24,0 z M 168,216 l 24,0 0,24 -24,0 z M 240,216 l 24,0 0,24 -24,0 z M 288,216 l 24,0 0,24 -24,0 z M 336,216 l 24,0 0,24 -24,0 z M 384,216 l 24,0 0,24 -24,0 z M 408,216 l 24,0 0,24 -24,0 z M 432,216 l 24,0 0,24 -24,0 z M 456,216 l 24,0 0,24 -24,0 z M 480,216 l 24,0 0,24 -24,0 z M 504,216 l 24,0 0,24 -24,0 z M 528,216 l 24,0 0,24 -24,0 z M 576,216 l 24,0 0,24 -24,0 z M 672,216 l 24,0 0,24 -24,0 z M 0,240 l 24,0 0,24 -24,0 z M 24,240 l 24,0 0,24 -24,0 z M 72,240 l 24,0 0,24 -24,0 z M 120,240 l 24,0 0,24 -24,0 z M 144,240 l 24,0 0,24 -24,0 z M 168,240 l 24,0 0,24 -24,0 z M 240,240 l 24,0 0,24 -24,0 z M 312,240 l 24,0 0,24 -24,0 z M 360,240 l 24,0 0,24 -24,0 z M 528,240 l 24,0 0,24 -24,0 z M 576,240 l 24,0 0,24 -24,0 z M 168,264 l 24,0 0,24 -24,0 z M 192,264 l 24,0 0,24 -24,0 z M 288,264 l 24,0 0,24 -24,0 z M 384,264 l 24,0 0,24 -24,0 z M 504,264 l 24,0 0,24 -24,0 z M 528,264 l 24,0 0,24 -24,0 z M 552,264 l 24,0 0,24 -24,0 z M 576,264 l 24,0 0,24 -24,0 z M 600,264 l 24,0 0,24 -24,0 z M 648,264 l 24,0 0,24 -24,0 z M 48,288 l 24,0 0,24 -24,0 z M 72,288 l 24,0 0,24 -24,0 z M 144,288 l 24,0 0,24 -24,0 z M 192,288 l 24,0 0,24 -24,0 z M 216,288 l 24,0 0,24 -24,0 z M 240,288 l 24,0 0,24 -24,0 z M 288,288 l 24,0 0,24 -24,0 z M 336,288 l 24,0 0,24 -24,0 z M 408,288 l 24,0 0,24 -24,0 z M 432,288 l 24,0 0,24 -24,0 z M 480,288 l 24,0 0,24 -24,0 z M 552,288 l 24,0 0,24 -24,0 z M 600,288 l 24,0 0,24 -24,0 z M 624,288 l 24,0 0,24 -24,0 z M 0,312 l 24,0 0,24 -24,0 z M 24,312 l 24,0 0,24 -24,0 z M 48,312 l 24,0 0,24 -24,0 z M 96,312 l 24,0 0,24 -24,0 z M 120,312 l 24,0 0,24 -24,0 z M 168,312 l 24,0 0,24 -24,0 z M 192,312 l 24,0 0,24 -24,0 z M 216,312 l 24,0 0,24 -24,0 z M 312,312 l 24,0 0,24 -24,0 z M 360,312 l 24,0 0,24 -24,0 z M 384,312 l 24,0 0,24 -24,0 z M 408,312 l 24,0 0,24 -24,0 z M 432,312 l 24,0 0,24 -24,0 z M 456,312 l 24,0 0,24 -24,0 z M 480,312 l 24,0 0,24 -24,0 z M 528,312 l 24,0 0,24 -24,0 z M 552,312 l 24,0 0,24 -24,0 z M 576,312 l 24,0 0,24 -24,0 z M 672,312 l 24,0 0,24 -24,0 z M 0,336 l 24,0 0,24 -24,0 z M 120,336 l 24,0 0,24 -24,0 z M 144,336 l 24,0 0,24 -24,0 z M 168,336 l 24,0 0,24 -24,0 z M 240,336 l 24,0 0,24 -24,0 z M 288,336 l 24,0 0,24 -24,0 z M 312,336 l 24,0 0,24 -24,0 z M 360,336 l 24,0 0,24 -24,0 z M 384,336 l 24,0 0,24 -24,0 z M 408,336 l 24,0 0,24 -24,0 z M 480,336 l 24,0 0,24 -24,0 z M 552,336 l 24,0 0,24 -24,0 z M 576,336 l 24,0 0,24 -24,0 z M 600,336 l 24,0 0,24 -24,0 z M 624,336 l 24,0 0,24 -24,0 z M 24,360 l 24,0 0,24 -24,0 z M 120,360 l 24,0 0,24 -24,0 z M 192,360 l 24,0 0,24 -24,0 z M 216,360 l 24,0 0,24 -24,0 z M 336,360 l 24,0 0,24 -24,0 z M 528,360 l 24,0 0,24 -24,0 z M 576,360 l 24,0 0,24 -24,0 z M 648,360 l 24,0 0,24 -24,0 z M 24,384 l 24,0 0,24 -24,0 z M 96,384 l 24,0 0,24 -24,0 z M 144,384 l 24,0 0,24 -24,0 z M 192,384 l 24,0 0,24 -24,0 z M 264,384 l 24,0 0,24 -24,0 z M 288,384 l 24,0 0,24 -24,0 z M 336,384 l 24,0 0,24 -24,0 z M 360,384 l 24,0 0,24 -24,0 z M 384,384 l 24,0 0,24 -24,0 z M 600,384 l 24,0 0,24 -24,0 z M 624,384 l 24,0 0,24 -24,0 z M 0,408 l 24,0 0,24 -24,0 z M 24,408 l 24,0 0,24 -24,0 z M 120,408 l 24,0 0,24 -24,0 z M 168,408 l 24,0 0,24 -24,0 z M 192,408 l 24,0 0,24 -24,0 z M 384,408 l 24,0 0,24 -24,0 z M 432,408 l 24,0 0,24 -24,0 z M 456,408 l 24,0 0,24 -24,0 z M 480,408 l 24,0 0,24 -24,0 z M 504,408 l 24,0 0,24 -24,0 z M 528,408 l 24,0 0,24 -24,0 z M 552,408 l 24,0 0,24 -24,0 z M 576,408 l 24,0 0,24 -24,0 z M 624,408 l 24,0 0,24 -24,0 z M 672,408 l 24,0 0,24 -24,0 z M 0,432 l 24,0 0,24 -24,0 z M 48,432 l 24,0 0,24 -24,0 z M 72,432 l 24,0 0,24 -24,0 z M 96,432 l 24,0 0,24 -24,0 z M 120,432 l 24,0 0,24 -24,0 z M 144,432 l 24,0 0,24 -24,0 z M 192,432 l 24,0 0,24 -24,0 z M 216,432 l 24,0 0,24 -24,0 z M 312,432 l 24,0 0,24 -24,0 z M 336,432 l 24,0 0,24 -24,0 z M 360,432 l 24,0 0,24 -24,0 z M 408,432 l 24,0 0,24 -24,0 z M 432,432 l 24,0 0,24 -24,0 z M 480,432 l 24,0 0,24 -24,0 z M 504,432 l 24,0 0,24 -24,0 z M 528,432 l 24,0 0,24 -24,0 z M 576,432 l 24,0 0,24 -24,0 z M 624,432 l 24,0 0,24 -24,0 z M 0,456 l 24,0 0,24 -24,0 z M 96,456 l 24,0 0,24 -24,0 z M 120,456 l 24,0 0,24 -24,0 z M 168,456 l 24,0 0,24 -24,0 z M 216,456 l 24,0 0,24 -24,0 z M 264,456 l 24,0 0,24 -24,0 z M 384,456 l 24,0 0,24 -24,0 z M 456,456 l 24,0 0,24 -24,0 z M 504,456 l 24,0 0,24 -24,0 z M 648,456 l 24,0 0,24 -24,0 z M 0,480 l 24,0 0,24 -24,0 z M 144,480 l 24,0 0,24 -24,0 z M 168,480 l 24,0 0,24 -24,0 z M 240,480 l 24,0 0,24 -24,0 z M 312,480 l 24,0 0,24 -24,0 z M 336,480 l 24,0 0,24 -24,0 z M 408,480 l 24,0 0,24 -24,0 z M 480,480 l 24,0 0,24 -24,0 z M 504,480 l 24,0 0,24 -24,0 z M 528,480 l 24,0 0,24 -24,0 z M 552,480 l 24,0 0,24 -24,0 z M 576,480 l 24,0 0,24 -24,0 z M 624,480 l 24,0 0,24 -24,0 z M 648,480 l 24,0 0,24 -24,0 z M 672,480 l 24,0 0,24 -24,0 z M 192,504 l 24,0 0,24 -24,0 z M 216,504 l 24,0 0,24 -24,0 z M 264,504 l 24,0 0,24 -24,0 z M 312,504 l 24,0 0,24 -24,0 z M 336,504 l 24,0 0,24 -24,0 z M 360,504 l 24,0 0,24 -24,0 z M 384,504 l 24,0 0,24 -24,0 z M 408,504 l 24,0 0,24 -24,0 z M 432,504 l 24,0 0,24 -24,0 z M 456,504 l 24,0 0,24 -24,0 z M 480,504 l 24,0 0,24 -24,0 z M 576,504 l 24,0 0,24 -24,0 z M 600,504 l 24,0 0,24 -24,0 z M 624,504 l 24,0 0,24 -24,0 z M 648,504 l 24,0 0,24 -24,0 z M 672,504 l 24,0 0,24 -24,0 z M 0,528 l 24,0 0,24 -24,0 z M 24,528 l 24,0 0,24 -24,0 z M 48,528 l 24,0 0,24 -24,0 z M 72,528 l 24,0 0,24 -24,0 z M 96,528 l 24,0 0,24 -24,0 z M 120,528 l 24,0 0,24 -24,0 z M 144,528 l 24,0 0,24 -24,0 z M 192,528 l 24,0 0,24 -24,0 z M 288,528 l 24,0 0,24 -24,0 z M 360,528 l 24,0 0,24 -24,0 z M 384,528 l 24,0 0,24 -24,0 z M 456,528 l 24,0 0,24 -24,0 z M 480,528 l 24,0 0,24 -24,0 z M 528,528 l 24,0 0,24 -24,0 z M 576,528 l 24,0 0,24 -24,0 z M 600,528 l 24,0 0,24 -24,0 z M 624,528 l 24,0 0,24 -24,0 z M 0,552 l 24,0 0,24 -24,0 z M 144,552 l 24,0 0,24 -24,0 z M 216,552 l 24,0 0,24 -24,0 z M 240,552 l 24,0 0,24 -24,0 z M 264,552 l 24,0 0,24 -24,0 z M 456,552 l 24,0 0,24 -24,0 z M 480,552 l 24,0 0,24 -24,0 z M 576,552 l 24,0 0,24 -24,0 z M 648,552 l 24,0 0,24 -24,0 z M 0,576 l 24,0 0,24 -24,0 z M 48,576 l 24,0 0,24 -24,0 z M 72,576 l 24,0 0,24 -24,0 z M 96,576 l 24,0 0,24 -24,0 z M 144,576 l 24,0 0,24 -24,0 z M 192,576 l 24,0 0,24 -24,0 z M 312,576 l 24,0 0,24 -24,0 z M 336,576 l 24,0 0,24 -24,0 z M 360,576 l 24,0 0,24 -24,0 z M 408,576 l 24,0 0,24 -24,0 z M 480,576 l 24,0 0,24 -24,0 z M 504,576 l 24,0 0,24 -24,0 z M 528,576 l 24,0 0,24 -24,0 z M 552,576 l 24,0 0,24 -24,0 z M 576,576 l 24,0 0,24 -24,0 z M 624,576 l 24,0 0,24 -24,0 z M 648,576 l 24,0 0,24 -24,0 z M 0,600 l 24,0 0,24 -24,0 z M 48,600 l 24,0 0,24 -24,0 z M 72,600 l 24,0 0,24 -24,0 z M 96,600 l 24,0 0,24 -24,0 z M 144,600 l 24,0 0,24 -24,0 z M 192,600 l 24,0 0,24 -24,0 z M 360,600 l 24,0 0,24 -24,0 z M 384,600 l 24,0 0,24 -24,0 z M 408,600 l 24,0 0,24 -24,0 z M 600,600 l 24,0 0,24 -24,0 z M 624,600 l 24,0 0,24 -24,0 z M 672,600 l 24,0 0,24 -24,0 z M 0,624 l 24,0 0,24 -24,0 z M 48,624 l 24,0 0,24 -24,0 z M 72,624 l 24,0 0,24 -24,0 z M 96,624 l 24,0 0,24 -24,0 z M 144,624 l 24,0 0,24 -24,0 z M 192,624 l 24,0 0,24 -24,0 z M 216,624 l 24,0 0,24 -24,0 z M 240,624 l 24,0 0,24 -24,0 z M 336,624 l 24,0 0,24 -24,0 z M 360,624 l 24,0 0,24 -24,0 z M 408,624 l 24,0 0,24 -24,0 z M 432,624 l 24,0 0,24 -24,0 z M 456,624 l 24,0 0,24 -24,0 z M 504,624 l 24,0 0,24 -24,0 z M 528,624 l 24,0 0,24 -24,0 z M 552,624 l 24,0 0,24 -24,0 z M 576,624 l 24,0 0,24 -24,0 z M 600,624 l 24,0 0,24 -24,0 z M 624,624 l 24,0 0,24 -24,0 z M 648,624 l 24,0 0,24 -24,0 z M 0,648 l 24,0 0,24 -24,0 z M 144,648 l 24,0 0,24 -24,0 z M 192,648 l 24,0 0,24 -24,0 z M 264,648 l 24,0 0,24 -24,0 z M 336,648 l 24,0 0,24 -24,0 z M 432,648 l 24,0 0,24 -24,0 z M 456,648 l 24,0 0,24 -24,0 z M 480,648 l 24,0 0,24 -24,0 z M 504,648 l 24,0 0,24 -24,0 z M 552,648 l 24,0 0,24 -24,0 z M 600,648 l 24,0 0,24 -24,0 z M 648,648 l 24,0 0,24 -24,0 z M 0,672 l 24,0 0,24 -24,0 z M 24,672 l 24,0 0,24 -24,0 z M 48,672 l 24,0 0,24 -24,0 z M 72,672 l 24,0 0,24 -24,0 z M 96,672 l 24,0 0,24 -24,0 z M 120,672 l 24,0 0,24 -24,0 z M 144,672 l 24,0 0,24 -24,0 z M 192,672 l 24,0 0,24 -24,0 z M 216,672 l 24,0 0,24 -24,0 z M 240,672 l 24,0 0,24 -24,0 z M 264,672 l 24,0 0,24 -24,0 z M 288,672 l 24,0 0,24 -24,0 z M 336,672 l 24,0 0,24 -24,0 z M 384,672 l 24,0 0,24 -24,0 z M 456,672 l 24,0 0,24 -24,0 z M 576,672 l 24,0 0,24 -24,0 z M 624,672 l 24,0 0,24 -24,0 z " />
	</g>
</svg>
